<?xml version="1.0" standalone="no"?>
<!DOCTYPE svg PUBLIC "-//W3C//DTD SVG 20010904//EN"
 "http://www.w3.org/TR/2001/REC-SVG-20010904/DTD/svg10.dtd">
<svg version="1.0" xmlns="http://www.w3.org/2000/svg"
 width="1024.000000pt" height="275.000000pt" viewBox="0 0 1024.000000 275.000000"
 preserveAspectRatio="xMidYMid meet">

<g transform="translate(0.000000,275.000000) scale(0.100000,-0.100000)"
fill="#F3313E" stroke="none">
<path d="M943 2730 c-27 -11 -33 -23 -73 -140 -17 -52 -35 -104 -40 -115 -5
-11 -20 -54 -33 -95 -14 -41 -28 -83 -32 -92 -5 -13 -2 -18 9 -18 29 0 121
-47 148 -76 14 -16 36 -49 49 -73 21 -41 23 -60 26 -245 5 -250 6 -257 42
-279 42 -24 68 -21 102 12 29 29 29 31 29 143 1 184 21 238 105 292 34 21 54
26 105 26 78 0 137 -31 178 -93 l27 -42 5 -792 5 -791 24 -26 c39 -41 105 -33
133 17 10 17 14 139 18 502 l5 480 24 45 c49 95 115 155 203 188 27 10 91 18
170 21 l126 6 -13 40 c-7 22 -23 74 -35 115 -12 41 -25 84 -29 95 -5 11 -16
47 -26 80 -9 33 -23 78 -30 100 -21 62 -60 192 -85 275 -12 41 -25 86 -30 100
-4 14 -22 72 -40 130 -49 159 -61 190 -84 206 -17 12 -96 14 -491 13 -258 0
-480 -4 -492 -9z"/>
<path d="M710 2123 c-6 -15 -18 -48 -26 -73 -9 -25 -19 -52 -24 -60 -4 -9 -11
-31 -15 -50 -4 -19 -10 -39 -13 -45 -6 -10 -69 -188 -128 -365 -19 -58 -38
-112 -41 -120 -15 -39 -98 -277 -129 -370 -19 -58 -38 -112 -41 -120 -15 -39
-98 -277 -129 -370 -19 -58 -38 -112 -41 -120 -18 -48 -96 -270 -105 -299 -13
-44 -2 -98 22 -111 15 -8 1493 -14 2658 -10 6 0 21 9 32 20 24 24 26 71 6 132
-8 24 -28 90 -45 148 -18 58 -36 116 -41 130 -5 14 -18 59 -30 100 -43 145
-52 175 -60 195 -5 11 -23 67 -40 125 -17 58 -42 139 -55 180 -12 41 -33 109
-45 150 -12 41 -32 107 -45 145 -12 39 -26 83 -29 99 l-7 28 -142 -4 c-180 -5
-217 -21 -283 -123 -18 -28 -19 -57 -24 -515 -6 -537 -5 -528 -71 -584 -53
-45 -96 -59 -162 -53 -74 7 -125 40 -161 106 l-26 49 0 775 0 775 -26 31 c-33
39 -80 42 -121 7 -28 -24 -28 -25 -33 -179 -5 -148 -6 -155 -33 -194 -89 -128
-287 -117 -360 21 -20 38 -22 59 -25 265 -3 182 -7 229 -19 248 -18 27 -53 47
-100 58 -30 6 -34 4 -43 -22z"/>
<path d="M6710 2073 c-259 -40 -435 -198 -512 -463 -30 -104 -33 -379 -4 -485
59 -220 183 -358 391 -433 118 -43 400 -41 580 4 l65 16 0 349 0 349 -183 0
-182 0 -55 -107 c-30 -60 -56 -111 -58 -115 -2 -4 41 -9 95 -10 l98 -3 3 -122
3 -122 -27 -7 c-42 -11 -190 3 -231 22 -144 65 -203 190 -203 425 0 272 96
412 305 443 37 6 178 -6 235 -19 24 -6 30 1 83 98 31 58 57 109 57 115 0 14
-123 52 -204 62 -70 9 -207 11 -256 3z"/>
<path d="M3385 2048 c-2 -7 -9 -146 -14 -308 -20 -547 -31 -854 -34 -957 l-3
-103 142 0 142 0 6 307 c11 459 12 488 26 488 7 0 16 -7 21 -15 11 -20 69
-150 69 -155 0 -2 16 -39 36 -82 34 -73 51 -111 99 -221 l19 -43 114 3 114 3
42 100 c39 90 70 162 96 220 5 11 18 43 30 70 76 180 80 174 80 -123 0 -137 3
-317 7 -400 l6 -152 151 0 151 0 -2 43 c-2 23 -8 146 -13 272 -13 267 -36 753
-46 938 l-7 127 -151 0 -151 0 -22 -58 c-11 -31 -53 -136 -93 -232 -39 -96
-76 -186 -82 -200 -66 -162 -96 -225 -107 -225 -7 0 -34 54 -62 125 -27 69
-54 134 -59 145 -5 11 -36 88 -70 170 -34 83 -67 164 -74 180 -7 17 -19 45
-26 63 l-12 32 -160 0 c-118 0 -160 -3 -163 -12z"/>
<path d="M5197 1998 c-19 -35 -46 -84 -61 -110 l-26 -48 61 0 c41 0 61 -4 65
-14 5 -12 -15 -90 -36 -141 -4 -11 -29 -87 -55 -170 -26 -82 -57 -181 -70
-220 -13 -38 -44 -137 -70 -220 -25 -82 -51 -161 -56 -175 -5 -14 -20 -61 -33
-105 -13 -44 -27 -88 -31 -97 -7 -17 4 -18 142 -18 l149 0 40 138 40 137 208
3 c135 1 213 -1 221 -8 7 -6 15 -23 18 -38 3 -15 18 -73 33 -129 l29 -103 161
0 161 0 -22 67 c-21 61 -43 132 -122 388 -14 44 -35 112 -48 150 -12 39 -39
124 -60 190 -20 66 -40 131 -45 145 -7 22 -63 197 -120 380 l-17 55 -211 3
-211 2 -34 -62z m289 -329 c4 -6 10 -25 15 -43 4 -17 29 -105 54 -196 26 -91
49 -177 52 -192 l5 -28 -141 0 c-88 0 -141 4 -141 10 0 29 132 460 141 460 4
0 11 -5 15 -11z"/>
<path d="M7535 2048 c-2 -7 -8 -164 -14 -348 -6 -184 -16 -423 -21 -530 -5
-107 -12 -261 -15 -342 l-5 -148 143 0 144 0 7 258 c10 381 18 542 28 542 5 0
23 -30 39 -67 33 -72 99 -219 144 -318 15 -33 34 -77 42 -98 l15 -38 115 3
115 3 27 65 c16 36 38 86 50 112 11 26 21 49 21 52 0 3 12 31 27 63 14 32 41
94 59 138 18 44 39 80 46 80 14 0 24 -226 27 -607 l1 -188 156 0 157 0 -6 37
c-3 21 -11 151 -17 288 -5 138 -15 320 -20 405 -5 85 -12 223 -15 305 -3 83
-8 194 -11 248 l-6 98 -151 -3 -151 -3 -37 -90 c-20 -49 -42 -101 -48 -115 -5
-14 -39 -97 -75 -185 -100 -247 -131 -318 -144 -323 -7 -2 -16 9 -22 25 -6 15
-15 37 -20 48 -5 11 -28 67 -51 125 -37 94 -119 295 -153 375 -7 17 -23 56
-36 88 l-22 57 -159 0 c-119 0 -161 -3 -164 -12z"/>
<path d="M9367 2038 c-8 -13 -35 -62 -60 -110 l-46 -88 65 0 c48 0 64 -3 64
-14 0 -13 -44 -157 -95 -311 -12 -38 -44 -137 -70 -220 -26 -82 -57 -181 -70
-220 -58 -178 -98 -304 -110 -347 l-13 -48 147 0 147 0 13 47 c8 27 25 89 40
138 l26 90 212 3 c242 3 223 10 249 -93 7 -27 21 -79 31 -115 l18 -65 158 -3
c110 -2 157 1 157 9 0 6 -11 43 -24 82 -13 40 -40 126 -61 192 -20 66 -45 145
-55 175 -19 58 -75 239 -117 375 -14 44 -31 98 -38 120 -8 22 -35 108 -61 190
-25 83 -52 168 -59 190 l-13 40 -211 3 c-209 2 -210 2 -224 -20z m276 -380 c2
-13 12 -50 22 -83 9 -33 23 -82 30 -110 8 -27 25 -90 39 -140 14 -49 26 -96
26 -102 0 -10 -35 -13 -141 -13 l-141 0 7 33 c4 17 13 50 20 72 7 22 34 113
60 203 46 156 66 192 78 140z"/>
</g>
</svg>
